# xmcd
#
# Track frame offsets:
# 150
# 36735
# 64765
# 83482
# 169017
# 187412
#
# Disc length: 3161 seconds
#
#
# Revision: 3
# Processed by: cddbd v1.5.1PL0 Copyright (c) Steve Scherf et al.
# Submitted via: FreeRIP 2.92 
#
DISCID=510c5706
DTITLE=Various Artist - Classic Joy
DYEAR=1900
DGENRE=Classical
TTITLE0=The Planets-Jupiter "The Bringer Of Jolity" (Holst)
TTITLE1=Symphony No. 9 In D Minor (4th Movement) Op.125 (Beethoven)
TTITLE2="Nimrod" From The Enigma Variations (Elgar)
TTITLE3=Music From The Royal Fireworks (Handel)
TTITLE4=Overture To "The Marriage Of Figaro" (Mozart)
TTITLE5=The Four Seasons "Summer" (Vivaldi)
EXTD=
EXTT0=
EXTT1=
EXTT2=
EXTT3=
EXTT4=
EXTT5=
PLAYORDER=
